<svg width="600" height="600" viewBox="0 0 600 600" fill="none" xmlns="http://www.w3.org/2000/svg">
  <path d="M449.175 124.037C487.707 156.046 518.309 198.08 532.371 246.14C546.432 294.201 543.951 348.287 521.004 396.352C498.056 444.417 454.642 486.459 407.244 507.933C359.847 529.407 308.466 530.313 256.652 516.764C204.837 503.214 152.59 475.208 119.461 435.788C86.3322 396.368 72.3219 345.535 68.6835 294.153C65.0451 242.772 71.7786 190.843 96.5003 151.193C121.222 111.544 163.932 84.1737 208.112 67.8167C252.293 51.4597 297.945 46.1158 340.828 52.1083C383.71 58.1009 423.823 75.4298 449.175 124.037Z" fill="url(#paint0_linear)"/>
  <defs>
    <linearGradient id="paint0_linear" x1="68.4151" y1="300.199" x2="532.616" y2="300.199" gradientUnits="userSpaceOnUse">
      <stop stop-color="#0EA5E9"/>
      <stop offset="1" stop-color="#A855F7"/>
    </linearGradient>
  </defs>
</svg>