<svg width="404" height="784" viewBox="0 0 404 784" fill="none" xmlns="http://www.w3.org/2000/svg">
  <g opacity="0.15">
    <rect width="4" height="4" x="0" y="0" fill="#0EA5E9"/>
    <rect width="4" height="4" x="40" y="0" fill="#0EA5E9"/>
    <rect width="4" height="4" x="80" y="0" fill="#0EA5E9"/>
    <rect width="4" height="4" x="120" y="0" fill="#0EA5E9"/>
    <rect width="4" height="4" x="160" y="0" fill="#0EA5E9"/>
    <rect width="4" height="4" x="200" y="0" fill="#0EA5E9"/>
    <rect width="4" height="4" x="240" y="0" fill="#0EA5E9"/>
    <rect width="4" height="4" x="280" y="0" fill="#0EA5E9"/>
    <rect width="4" height="4" x="320" y="0" fill="#0EA5E9"/>
    <rect width="4" height="4" x="360" y="0" fill="#0EA5E9"/>
    <rect width="4" height="4" x="400" y="0" fill="#0EA5E9"/>
    
    <rect width="4" height="4" x="0" y="40" fill="#0EA5E9"/>
    <rect width="4" height="4" x="40" y="40" fill="#0EA5E9"/>
    <rect width="4" height="4" x="80" y="40" fill="#0EA5E9"/>
    <rect width="4" height="4" x="120" y="40" fill="#0EA5E9"/>
    <rect width="4" height="4" x="160" y="40" fill="#0EA5E9"/>
    <rect width="4" height="4" x="200" y="40" fill="#0EA5E9"/>
    <rect width="4" height="4" x="240" y="40" fill="#0EA5E9"/>
    <rect width="4" height="4" x="280" y="40" fill="#0EA5E9"/>
    <rect width="4" height="4" x="320" y="40" fill="#0EA5E9"/>
    <rect width="4" height="4" x="360" y="40" fill="#0EA5E9"/>
    <rect width="4" height="4" x="400" y="40" fill="#0EA5E9"/>
    
    <!-- Continue this pattern for the entire height, repeating every 40px -->
    <!-- This is simplified for brevity but would continue to fill the height -->
  </g>
</svg>